<?xml version="1.0" encoding="utf-8"?>
<svg xmlns="http://www.w3.org/2000/svg" viewBox="0 0 26 26" width="208" height="208">
  <path d="M21.125 5L19.199219 5L17.894531 2.699219C17.671875 2.300781 17.179688 2 16.5 2L9.5 2C8.789063 2 8.332031 2.300781 8.105469 2.699219L6.800781 5L4.875 5C2.183594 5 0 7.183594 0 9.875L0 18.125C0 20.816406 2.183594 23 4.875 23L21.125 23C23.816406 23 26 20.816406 26 18.125L26 9.875C26 7.183594 23.816406 5 21.125 5 Z M 13 21C9.132813 21 6 17.867188 6 14L4 14L7 10L10 14L8 14C8 16.757813 10.242188 19 13 19C14.269531 19 15.414063 18.511719 16.296875 17.730469L17.511719 19.347656C16.292969 20.378906 14.71875 21 13 21 Z M 19 18L16 14L18 14C18 11.242188 15.757813 9 13 9C11.730469 9 10.585938 9.488281 9.703125 10.269531L8.488281 8.652344C9.707031 7.621094 11.28125 7 13 7C16.867188 7 20 10.132813 20 14L22 14Z" fill="#FFFFFF" />
</svg>